<svg width="15" height="15" viewBox="0 0 15 15" fill="none" xmlns="http://www.w3.org/2000/svg">
<path opacity="0.2" d="M11.4875 4.25V5.125H10.175C9.94298 5.125 9.72042 5.21719 9.55633 5.38128C9.39224 5.54538 9.30005 5.76794 9.30005 6V10.375H2.73755C2.50548 10.375 2.28292 10.2828 2.11883 10.1187C1.95474 9.95462 1.86255 9.73206 1.86255 9.5V4.25C1.86255 4.01794 1.95474 3.79538 2.11883 3.63128C2.28292 3.46719 2.50548 3.375 2.73755 3.375H10.6125C10.8446 3.375 11.0672 3.46719 11.2313 3.63128C11.3954 3.79538 11.4875 4.01794 11.4875 4.25Z" fill="#0A0A0A"/>
<path d="M12.8 4.6875H11.925V4.25C11.925 3.9019 11.7868 3.56806 11.5406 3.32192C11.2945 3.07578 10.9606 2.9375 10.6125 2.9375H2.73755C2.38945 2.9375 2.05561 3.07578 1.80947 3.32192C1.56333 3.56806 1.42505 3.9019 1.42505 4.25V9.5C1.42505 9.8481 1.56333 10.1819 1.80947 10.4281C2.05561 10.6742 2.38945 10.8125 2.73755 10.8125H8.86255V11.25C8.86255 11.5981 9.00083 11.9319 9.24697 12.1781C9.49311 12.4242 9.82695 12.5625 10.175 12.5625H12.8C13.1481 12.5625 13.482 12.4242 13.7281 12.1781C13.9743 11.9319 14.1125 11.5981 14.1125 11.25V6C14.1125 5.6519 13.9743 5.31806 13.7281 5.07192C13.482 4.82578 13.1481 4.6875 12.8 4.6875ZM2.73755 9.9375C2.62152 9.9375 2.51024 9.89141 2.42819 9.80936C2.34614 9.72731 2.30005 9.61603 2.30005 9.5V4.25C2.30005 4.13397 2.34614 4.02269 2.42819 3.94064C2.51024 3.85859 2.62152 3.8125 2.73755 3.8125H10.6125C10.7286 3.8125 10.8399 3.85859 10.9219 3.94064C11.004 4.02269 11.05 4.13397 11.05 4.25V4.6875H10.175C9.82695 4.6875 9.49311 4.82578 9.24697 5.07192C9.00083 5.31806 8.86255 5.6519 8.86255 6V9.9375H2.73755ZM13.2375 11.25C13.2375 11.366 13.1915 11.4773 13.1094 11.5594C13.0274 11.6414 12.9161 11.6875 12.8 11.6875H10.175C10.059 11.6875 9.94774 11.6414 9.86569 11.5594C9.78364 11.4773 9.73755 11.366 9.73755 11.25V6C9.73755 5.88397 9.78364 5.77269 9.86569 5.69064C9.94774 5.60859 10.059 5.5625 10.175 5.5625H12.8C12.9161 5.5625 13.0274 5.60859 13.1094 5.69064C13.1915 5.77269 13.2375 5.88397 13.2375 6V11.25ZM7.98755 12.125C7.98755 12.241 7.94146 12.3523 7.85941 12.4344C7.77736 12.5164 7.66608 12.5625 7.55005 12.5625H5.36255C5.24652 12.5625 5.13524 12.5164 5.05319 12.4344C4.97114 12.3523 4.92505 12.241 4.92505 12.125C4.92505 12.009 4.97114 11.8977 5.05319 11.8156C5.13524 11.7336 5.24652 11.6875 5.36255 11.6875H7.55005C7.66608 11.6875 7.77736 11.7336 7.85941 11.8156C7.94146 11.8977 7.98755 12.009 7.98755 12.125ZM12.3625 6.875C12.3625 6.99103 12.3165 7.10231 12.2344 7.18436C12.1524 7.26641 12.0411 7.3125 11.925 7.3125H11.05C10.934 7.3125 10.8227 7.26641 10.7407 7.18436C10.6586 7.10231 10.6125 6.99103 10.6125 6.875C10.6125 6.75897 10.6586 6.64769 10.7407 6.56564C10.8227 6.48359 10.934 6.4375 11.05 6.4375H11.925C12.0411 6.4375 12.1524 6.48359 12.2344 6.56564C12.3165 6.64769 12.3625 6.75897 12.3625 6.875Z" fill="#0A0A0A"/>
</svg>
