<svg width="69" height="34" viewBox="0 0 69 34" fill="none" xmlns="http://www.w3.org/2000/svg">
<rect x="2.64001" y="2.0498" width="29" height="29" rx="14.5" fill="#0A0A0A"/>
<path d="M22.0874 16.7019L20.7124 13.2644C20.667 13.151 20.5827 13.0574 20.4746 13.0004C20.3666 12.9433 20.2418 12.9265 20.1225 12.9529L17.6556 13.499V12.7686C17.6556 12.6318 17.6013 12.5007 17.5046 12.404C17.4079 12.3073 17.2768 12.2529 17.14 12.2529C17.0033 12.2529 16.8721 12.3073 16.7754 12.404C16.6787 12.5007 16.6244 12.6318 16.6244 12.7686V13.7298L13.9345 14.3279C13.8527 14.3461 13.7764 14.3839 13.7125 14.4382C13.6485 14.4925 13.5988 14.5616 13.5676 14.6394L12.1926 18.0735C12.1678 18.1355 12.1552 18.2017 12.1556 18.2686C12.1556 18.7898 12.422 19.2323 12.9054 19.5146C13.2542 19.7097 13.6467 19.8132 14.0463 19.8154C14.4459 19.8132 14.8384 19.7097 15.1871 19.5146C15.6705 19.2323 15.9369 18.7898 15.9369 18.2686C15.9369 18.2029 15.9243 18.1379 15.8999 18.0769L14.7501 15.2027L16.6244 14.7881V19.8154H16.1088C15.972 19.8154 15.8409 19.8698 15.7442 19.9665C15.6475 20.0632 15.5931 20.1943 15.5931 20.3311C15.5931 20.4678 15.6475 20.599 15.7442 20.6957C15.8409 20.7924 15.972 20.8467 16.1088 20.8467H18.1713C18.308 20.8467 18.4392 20.7924 18.5359 20.6957C18.6326 20.599 18.6869 20.4678 18.6869 20.3311C18.6869 20.1943 18.6326 20.0632 18.5359 19.9665C18.4392 19.8698 18.308 19.8154 18.1713 19.8154H17.6556V14.5573L19.3924 14.1706L18.3801 16.7015C18.3556 16.7626 18.3431 16.8278 18.3431 16.8936C18.3431 17.4148 18.6095 17.8573 19.0929 18.1396C19.4407 18.3371 19.8338 18.4409 20.2338 18.4409C20.6337 18.4409 21.0268 18.3371 21.3746 18.1396C21.858 17.8573 22.1244 17.4148 22.1244 16.8936C22.1244 16.8279 22.1118 16.7629 22.0874 16.7019ZM14.0463 18.7842C13.8869 18.7842 13.2728 18.7038 13.1951 18.3468L14.0463 16.2194L14.8975 18.3468C14.8197 18.7038 14.2057 18.7842 14.0463 18.7842ZM20.2338 17.4092C20.0744 17.4092 19.4603 17.3288 19.3826 16.9718L20.2338 14.8444L21.085 16.9718C21.0072 17.3288 20.3932 17.4092 20.2338 17.4092Z" fill="white"/>
</svg>
