<svg width="15" height="15" viewBox="0 0 15 15" fill="none" xmlns="http://www.w3.org/2000/svg">
<path opacity="0.2" d="M12.2825 5.9375V8.5625H2.65747V5.9375H12.2825Z" fill="#0A0A0A"/>
<path d="M12.2825 5.5H10.095V3.3125C10.095 3.19647 10.0489 3.08519 9.96683 3.00314C9.88478 2.92109 9.7735 2.875 9.65747 2.875H3.09497V2.4375C3.09497 2.32147 3.04888 2.21019 2.96683 2.12814C2.88478 2.04609 2.7735 2 2.65747 2C2.54144 2 2.43016 2.04609 2.34811 2.12814C2.26606 2.21019 2.21997 2.32147 2.21997 2.4375V12.0625C2.21997 12.1785 2.26606 12.2898 2.34811 12.3719C2.43016 12.4539 2.54144 12.5 2.65747 12.5C2.7735 12.5 2.88478 12.4539 2.96683 12.3719C3.04888 12.2898 3.09497 12.1785 3.09497 12.0625V11.625H7.90747C8.0235 11.625 8.13478 11.5789 8.21683 11.4969C8.29888 11.4148 8.34497 11.3035 8.34497 11.1875V9H12.2825C12.3985 9 12.5098 8.95391 12.5918 8.87186C12.6739 8.78981 12.72 8.67853 12.72 8.5625V5.9375C12.72 5.82147 12.6739 5.71019 12.5918 5.62814C12.5098 5.54609 12.3985 5.5 12.2825 5.5ZM9.21997 3.75V5.5H3.09497V3.75H9.21997ZM7.46997 10.75H3.09497V9H7.46997V10.75ZM11.845 8.125H3.09497V6.375H11.845V8.125Z" fill="#0A0A0A"/>
</svg>
