<svg width="15" height="15" viewBox="0 0 15 15" fill="none" xmlns="http://www.w3.org/2000/svg">
<path opacity="0.2" d="M12.5825 2.875V11.625C12.5825 11.741 12.5364 11.8523 12.4544 11.9344C12.3723 12.0164 12.2611 12.0625 12.145 12.0625H4.27002L2.95752 10.75V2.875C2.95752 2.75897 3.00361 2.64769 3.08566 2.56564C3.16771 2.48359 3.27899 2.4375 3.39502 2.4375H12.145C12.2611 2.4375 12.3723 2.48359 12.4544 2.56564C12.5364 2.64769 12.5825 2.75897 12.5825 2.875Z" fill="#0A0A0A"/>
<path d="M13.02 2.875V11.625C13.02 11.8571 12.9278 12.0796 12.7637 12.2437C12.5996 12.4078 12.3771 12.5 12.145 12.5H8.20752C8.09149 12.5 7.98021 12.4539 7.89816 12.3719C7.81611 12.2898 7.77002 12.1785 7.77002 12.0625C7.77002 11.9465 7.81611 11.8352 7.89816 11.7531C7.98021 11.6711 8.09149 11.625 8.20752 11.625H12.145V2.875H3.39502V8.125C3.39502 8.24103 3.34892 8.35231 3.26688 8.43436C3.18483 8.51641 3.07355 8.5625 2.95752 8.5625C2.84149 8.5625 2.73021 8.51641 2.64816 8.43436C2.56611 8.35231 2.52002 8.24103 2.52002 8.125V2.875C2.52002 2.64294 2.61221 2.42038 2.7763 2.25628C2.94039 2.09219 3.16295 2 3.39502 2H12.145C12.3771 2 12.5996 2.09219 12.7637 2.25628C12.9278 2.42038 13.02 2.64294 13.02 2.875ZM7.64205 8.69047C7.60142 8.64979 7.55317 8.61752 7.50006 8.5955C7.44694 8.57349 7.39001 8.56216 7.33252 8.56216C7.27502 8.56216 7.21809 8.57349 7.16498 8.5955C7.11187 8.61752 7.06362 8.64979 7.02299 8.69047L4.27002 11.444L3.26705 10.4405C3.2264 10.3998 3.17815 10.3676 3.12504 10.3456C3.07193 10.3236 3.015 10.3123 2.95752 10.3123C2.90003 10.3123 2.84311 10.3236 2.79 10.3456C2.73689 10.3676 2.68864 10.3998 2.64799 10.4405C2.60734 10.4811 2.5751 10.5294 2.5531 10.5825C2.5311 10.6356 2.51978 10.6925 2.51978 10.75C2.51978 10.8075 2.5311 10.8644 2.5531 10.9175C2.5751 10.9706 2.60734 11.0189 2.64799 11.0595L3.96049 12.372C4.00112 12.4127 4.04937 12.445 4.10248 12.467C4.15559 12.489 4.21252 12.5003 4.27002 12.5003C4.32751 12.5003 4.38444 12.489 4.43756 12.467C4.49067 12.445 4.53892 12.4127 4.57955 12.372L7.64205 9.30953C7.68273 9.2689 7.715 9.22065 7.73701 9.16754C7.75903 9.11442 7.77036 9.05749 7.77036 9C7.77036 8.94251 7.75903 8.88557 7.73701 8.83246C7.715 8.77935 7.68273 8.7311 7.64205 8.69047Z" fill="#0A0A0A"/>
</svg>
