<svg width="15" height="15" viewBox="0 0 15 15" fill="none" xmlns="http://www.w3.org/2000/svg">
<path opacity="0.2" d="M12.2825 3.375V12.125C12.2825 12.241 12.2364 12.3523 12.1543 12.4344C12.0723 12.5164 11.961 12.5625 11.845 12.5625H3.96997L2.65747 11.25V3.375C2.65747 3.25897 2.70356 3.14769 2.78561 3.06564C2.86766 2.98359 2.97894 2.9375 3.09497 2.9375H11.845C11.961 2.9375 12.0723 2.98359 12.1543 3.06564C12.2364 3.14769 12.2825 3.25897 12.2825 3.375Z" fill="#0A0A0A"/>
<path d="M12.72 3.375V12.125C12.72 12.3571 12.6278 12.5796 12.4637 12.7437C12.2996 12.9078 12.077 13 11.845 13H7.90747C7.79144 13 7.68016 12.9539 7.59811 12.8719C7.51606 12.7898 7.46997 12.6785 7.46997 12.5625C7.46997 12.4465 7.51606 12.3352 7.59811 12.2531C7.68016 12.1711 7.79144 12.125 7.90747 12.125H11.845V3.375H3.09497V8.625C3.09497 8.74103 3.04888 8.85231 2.96683 8.93436C2.88478 9.01641 2.7735 9.0625 2.65747 9.0625C2.54144 9.0625 2.43016 9.01641 2.34811 8.93436C2.26606 8.85231 2.21997 8.74103 2.21997 8.625V3.375C2.21997 3.14294 2.31216 2.92038 2.47625 2.75628C2.64035 2.59219 2.86291 2.5 3.09497 2.5H11.845C12.077 2.5 12.2996 2.59219 12.4637 2.75628C12.6278 2.92038 12.72 3.14294 12.72 3.375ZM7.342 9.19047C7.30137 9.14979 7.25312 9.11752 7.20001 9.0955C7.14689 9.07349 7.08996 9.06216 7.03247 9.06216C6.97498 9.06216 6.91805 9.07349 6.86493 9.0955C6.81182 9.11752 6.76357 9.14979 6.72294 9.19047L3.96997 11.944L2.967 10.9405C2.92635 10.8998 2.8781 10.8676 2.82499 10.8456C2.77188 10.8236 2.71496 10.8123 2.65747 10.8123C2.59998 10.8123 2.54306 10.8236 2.48995 10.8456C2.43684 10.8676 2.38859 10.8998 2.34794 10.9405C2.30729 10.9811 2.27505 11.0294 2.25305 11.0825C2.23105 11.1356 2.21973 11.1925 2.21973 11.25C2.21973 11.3075 2.23105 11.3644 2.25305 11.4175C2.27505 11.4706 2.30729 11.5189 2.34794 11.5595L3.66044 12.872C3.70107 12.9127 3.74932 12.945 3.80243 12.967C3.85555 12.989 3.91248 13.0003 3.96997 13.0003C4.02746 13.0003 4.08439 12.989 4.13751 12.967C4.19062 12.945 4.23887 12.9127 4.2795 12.872L7.342 9.80953C7.38268 9.7689 7.41495 9.72065 7.43696 9.66754C7.45898 9.61442 7.47031 9.55749 7.47031 9.5C7.47031 9.44251 7.45898 9.38557 7.43696 9.33246C7.41495 9.27935 7.38268 9.2311 7.342 9.19047Z" fill="#0A0A0A"/>
</svg>
