<svg width="14" height="15" viewBox="0 0 14 15" fill="none" xmlns="http://www.w3.org/2000/svg">
<path opacity="0.2" d="M11.8125 2.93506H2.1875C2.07147 2.93506 1.96019 2.98115 1.87814 3.0632C1.79609 3.14525 1.75 3.25653 1.75 3.37256V9.49756C1.75 9.61359 1.79609 9.72487 1.87814 9.80692C1.96019 9.88897 2.07147 9.93506 2.1875 9.93506H11.8125C11.9285 9.93506 12.0398 9.88897 12.1219 9.80692C12.2039 9.72487 12.25 9.61359 12.25 9.49756V3.37256C12.25 3.25653 12.2039 3.14525 12.1219 3.0632C12.0398 2.98115 11.9285 2.93506 11.8125 2.93506ZM6.125 8.18506V4.68506L8.75 6.43506L6.125 8.18506Z" fill="#0A0A0A"/>
<path d="M8.99281 6.07084L6.36781 4.32084C6.30191 4.27687 6.2253 4.25162 6.14617 4.24779C6.06704 4.24395 5.98835 4.26168 5.91851 4.29907C5.84866 4.33646 5.79028 4.39212 5.7496 4.4601C5.70891 4.52808 5.68745 4.60583 5.6875 4.68506V8.18506C5.68745 8.26428 5.70891 8.34204 5.7496 8.41002C5.79028 8.478 5.84866 8.53365 5.91851 8.57105C5.98835 8.60844 6.06704 8.62616 6.14617 8.62233C6.2253 8.6185 6.30191 8.59325 6.36781 8.54928L8.99281 6.79928C9.05282 6.75934 9.10204 6.70519 9.13608 6.64165C9.17011 6.57811 9.18793 6.50714 9.18793 6.43506C9.18793 6.36297 9.17011 6.29201 9.13608 6.22846C9.10204 6.16492 9.05282 6.11078 8.99281 6.07084ZM6.5625 7.36748V5.50537L7.96141 6.43506L6.5625 7.36748ZM11.8125 2.49756H2.1875C1.95544 2.49756 1.73288 2.58975 1.56878 2.75384C1.40469 2.91793 1.3125 3.14049 1.3125 3.37256V9.49756C1.3125 9.72962 1.40469 9.95218 1.56878 10.1163C1.73288 10.2804 1.95544 10.3726 2.1875 10.3726H11.8125C12.0446 10.3726 12.2671 10.2804 12.4312 10.1163C12.5953 9.95218 12.6875 9.72962 12.6875 9.49756V3.37256C12.6875 3.14049 12.5953 2.91793 12.4312 2.75384C12.2671 2.58975 12.0446 2.49756 11.8125 2.49756ZM11.8125 9.49756H2.1875V3.37256H11.8125V9.49756ZM12.6875 11.6851C12.6875 11.8011 12.6414 11.9124 12.5594 11.9944C12.4773 12.0765 12.366 12.1226 12.25 12.1226H1.75C1.63397 12.1226 1.52269 12.0765 1.44064 11.9944C1.35859 11.9124 1.3125 11.8011 1.3125 11.6851C1.3125 11.569 1.35859 11.4577 1.44064 11.3757C1.52269 11.2937 1.63397 11.2476 1.75 11.2476H12.25C12.366 11.2476 12.4773 11.2937 12.5594 11.3757C12.6414 11.4577 12.6875 11.569 12.6875 11.6851Z" fill="#0A0A0A"/>
</svg>
