<svg width="14" height="15" viewBox="0 0 14 15" fill="none" xmlns="http://www.w3.org/2000/svg">
<path opacity="0.2" d="M11.8125 5.18506C11.8125 6.63482 9.65781 7.81006 7 7.81006C4.34219 7.81006 2.1875 6.63482 2.1875 5.18506C2.1875 3.73529 4.34219 2.56006 7 2.56006C9.65781 2.56006 11.8125 3.73529 11.8125 5.18506Z" fill="#0A0A0A"/>
<path d="M7 2.12256C4.05617 2.12256 1.75 3.46787 1.75 5.18506V10.4351C1.75 12.1522 4.05617 13.4976 7 13.4976C9.94383 13.4976 12.25 12.1522 12.25 10.4351V5.18506C12.25 3.46787 9.94383 2.12256 7 2.12256ZM11.375 7.81006C11.375 8.33615 10.9441 8.87264 10.1932 9.28225C9.34773 9.74326 8.21352 9.99756 7 9.99756C5.78648 9.99756 4.65227 9.74326 3.8068 9.28225C3.05594 8.87264 2.625 8.33615 2.625 7.81006V6.90006C3.55797 7.72037 5.1532 8.24756 7 8.24756C8.8468 8.24756 10.442 7.71818 11.375 6.90006V7.81006ZM3.8068 3.71287C4.65227 3.25186 5.78648 2.99756 7 2.99756C8.21352 2.99756 9.34773 3.25186 10.1932 3.71287C10.9441 4.12248 11.375 4.65896 11.375 5.18506C11.375 5.71115 10.9441 6.24764 10.1932 6.65725C9.34773 7.11826 8.21352 7.37256 7 7.37256C5.78648 7.37256 4.65227 7.11826 3.8068 6.65725C3.05594 6.24764 2.625 5.71115 2.625 5.18506C2.625 4.65896 3.05594 4.12248 3.8068 3.71287ZM10.1932 11.9072C9.34773 12.3683 8.21352 12.6226 7 12.6226C5.78648 12.6226 4.65227 12.3683 3.8068 11.9072C3.05594 11.4976 2.625 10.9612 2.625 10.4351V9.52506C3.55797 10.3454 5.1532 10.8726 7 10.8726C8.8468 10.8726 10.442 10.3432 11.375 9.52506V10.4351C11.375 10.9612 10.9441 11.4976 10.1932 11.9072Z" fill="#0A0A0A"/>
</svg>
