<svg width="15" height="15" viewBox="0 0 15 15" fill="none" xmlns="http://www.w3.org/2000/svg">
<path opacity="0.2" d="M12.47 7.31006C12.47 8.34841 12.1621 9.36344 11.5852 10.2268C11.0083 11.0902 10.1884 11.7631 9.22906 12.1604C8.26975 12.5578 7.21415 12.6618 6.19575 12.4592C5.17735 12.2566 4.24189 11.7566 3.50766 11.0224C2.77344 10.2881 2.27342 9.35268 2.07085 8.33428C1.86828 7.31588 1.97225 6.26028 2.36961 5.30097C2.76697 4.34166 3.43987 3.52172 4.30323 2.94484C5.16659 2.36797 6.18162 2.06006 7.21997 2.06006C8.61236 2.06006 9.94772 2.61318 10.9323 3.59775C11.9169 4.58231 12.47 5.91767 12.47 7.31006Z" fill="#0A0A0A"/>
<path d="M7.21997 1.62256C6.09509 1.62256 4.99547 1.95612 4.06017 2.58108C3.12486 3.20603 2.39588 4.09429 1.96541 5.13355C1.53494 6.1728 1.4223 7.31637 1.64176 8.41963C1.86121 9.5229 2.40289 10.5363 3.1983 11.3317C3.99371 12.1271 5.00713 12.6688 6.1104 12.8883C7.21366 13.1077 8.35723 12.9951 9.39648 12.5646C10.4357 12.1341 11.324 11.4052 11.949 10.4699C12.5739 9.53456 12.9075 8.43494 12.9075 7.31006C12.9059 5.80213 12.3062 4.35642 11.2399 3.29015C10.1736 2.22388 8.7279 1.62415 7.21997 1.62256ZM5.77786 9.49756H8.66208C8.36841 10.5005 7.87622 11.4045 7.21997 12.1165C6.56372 11.4045 6.07154 10.5005 5.77786 9.49756ZM5.57935 8.62256C5.43425 7.75357 5.43425 6.86654 5.57935 5.99756H8.8606C9.0057 6.86654 9.0057 7.75357 8.8606 8.62256H5.57935ZM2.40747 7.31006C2.40709 6.86624 2.46838 6.42451 2.58958 5.99756H4.69286C4.56234 6.86769 4.56234 7.75243 4.69286 8.62256H2.58958C2.46838 8.1956 2.40709 7.75388 2.40747 7.31006ZM8.66208 5.12256H5.77786C6.07154 4.11959 6.56372 3.21561 7.21997 2.50357C7.87622 3.21561 8.36841 4.11959 8.66208 5.12256ZM9.74708 5.99756H11.8504C12.0932 6.85571 12.0932 7.7644 11.8504 8.62256H9.74708C9.8776 7.75243 9.8776 6.86769 9.74708 5.99756ZM11.5058 5.12256H9.56825C9.34499 4.24401 8.97003 3.41119 8.46029 2.66162C9.11153 2.83663 9.71894 3.146 10.2435 3.56983C10.768 3.99366 11.198 4.52258 11.5058 5.12256ZM5.97966 2.66162C5.46991 3.41119 5.09496 4.24401 4.87169 5.12256H2.93411C3.24196 4.52258 3.67197 3.99366 4.19649 3.56983C4.721 3.146 5.32841 2.83663 5.97966 2.66162ZM2.93411 9.49756H4.87169C5.09496 10.3761 5.46991 11.2089 5.97966 11.9585C5.32841 11.7835 4.721 11.4741 4.19649 11.0503C3.67197 10.6265 3.24196 10.0975 2.93411 9.49756ZM8.46029 11.9585C8.97003 11.2089 9.34499 10.3761 9.56825 9.49756H11.5058C11.198 10.0975 10.768 10.6265 10.2435 11.0503C9.71894 11.4741 9.11153 11.7835 8.46029 11.9585Z" fill="#0A0A0A"/>
</svg>
