<svg width="15" height="15" viewBox="0 0 15 15" fill="none" xmlns="http://www.w3.org/2000/svg">
<path opacity="0.2" d="M11.8425 3.81006L11.1775 7.46646C11.1409 7.66808 11.0347 7.85044 10.8774 7.98176C10.7201 8.11308 10.5217 8.18503 10.3167 8.18506H3.45073L2.65503 3.81006H11.8425Z" fill="#0A0A0A"/>
<path d="M12.1783 3.52951C12.1372 3.48037 12.0859 3.44084 12.0279 3.41372C11.9698 3.3866 11.9066 3.37255 11.8425 3.37256H3.02034L2.75292 1.90365C2.71629 1.70204 2.61007 1.51968 2.45276 1.38835C2.29546 1.25703 2.09705 1.18509 1.89214 1.18506H0.905029C0.788997 1.18506 0.677717 1.23115 0.59567 1.3132C0.513623 1.39525 0.467529 1.50653 0.467529 1.62256C0.467529 1.73859 0.513623 1.84987 0.59567 1.93192C0.677717 2.01397 0.788997 2.06006 0.905029 2.06006H1.8894L3.28722 9.73217C3.32839 9.9597 3.42895 10.1723 3.5787 10.3485C3.37201 10.5416 3.22282 10.7881 3.14769 11.0607C3.07255 11.3334 3.0744 11.6216 3.15303 11.8932C3.23166 12.1649 3.384 12.4095 3.59315 12.5999C3.80231 12.7903 4.06011 12.919 4.33796 12.9719C4.61581 13.0247 4.90287 12.9995 5.16729 12.8991C5.43171 12.7988 5.66317 12.6271 5.83601 12.4033C6.00884 12.1794 6.11629 11.912 6.14644 11.6308C6.17659 11.3496 6.12827 11.0655 6.00683 10.8101H8.49073C8.39286 11.015 8.34221 11.2392 8.34253 11.4663C8.34253 11.7692 8.43234 12.0652 8.60059 12.317C8.76885 12.5688 9.008 12.7651 9.2878 12.881C9.5676 12.9969 9.87548 13.0272 10.1725 12.9681C10.4695 12.9091 10.7424 12.7632 10.9565 12.5491C11.1707 12.3349 11.3165 12.0621 11.3756 11.765C11.4347 11.468 11.4044 11.1601 11.2885 10.8803C11.1726 10.6005 10.9763 10.3614 10.7245 10.1931C10.4727 10.0249 10.1766 9.93506 9.87378 9.93506H4.57839C4.47593 9.93504 4.37673 9.89907 4.29808 9.83341C4.21943 9.76775 4.16631 9.67657 4.148 9.57576L3.97464 8.62256H10.3184C10.6258 8.62251 10.9234 8.51459 11.1593 8.31761C11.3953 8.12063 11.5546 7.84709 11.6096 7.54467L12.2746 3.88826C12.2858 3.82506 12.283 3.76016 12.2664 3.69817C12.2498 3.63617 12.2197 3.57859 12.1783 3.52951ZM5.28003 11.4663C5.28003 11.5961 5.24154 11.723 5.16943 11.8309C5.09732 11.9388 4.99483 12.0229 4.87492 12.0726C4.755 12.1223 4.62305 12.1353 4.49575 12.1099C4.36845 12.0846 4.25152 12.0221 4.15974 11.9303C4.06796 11.8386 4.00546 11.7216 3.98014 11.5943C3.95482 11.467 3.96781 11.3351 4.01748 11.2152C4.06715 11.0953 4.15127 10.9928 4.25919 10.9207C4.36711 10.8485 4.49399 10.8101 4.62378 10.8101C4.79783 10.8101 4.96475 10.8792 5.08782 11.0023C5.21089 11.1253 5.28003 11.2923 5.28003 11.4663ZM10.53 11.4663C10.53 11.5961 10.4915 11.723 10.4194 11.8309C10.3473 11.9388 10.2448 12.0229 10.1249 12.0726C10.005 12.1223 9.87305 12.1353 9.74575 12.1099C9.61845 12.0846 9.50152 12.0221 9.40974 11.9303C9.31796 11.8386 9.25546 11.7216 9.23014 11.5943C9.20482 11.467 9.21781 11.3351 9.26748 11.2152C9.31715 11.0953 9.40127 10.9928 9.50919 10.9207C9.61711 10.8485 9.74399 10.8101 9.87378 10.8101C10.0478 10.8101 10.2147 10.8792 10.3378 11.0023C10.4609 11.1253 10.53 11.2923 10.53 11.4663ZM10.7488 7.38826C10.7304 7.48935 10.6771 7.58074 10.5981 7.64644C10.5191 7.71213 10.4195 7.74793 10.3167 7.74756H3.8155L3.17948 4.24756H11.3181L10.7488 7.38826Z" fill="#0A0A0A"/>
</svg>
