<svg width="15" height="15" viewBox="0 0 15 15" fill="none" xmlns="http://www.w3.org/2000/svg">
<path opacity="0.2" d="M12.3601 3.8125L7.11011 8.625L1.86011 3.8125H12.3601Z" fill="#0A0A0A"/>
<path d="M12.3601 3.375H1.86011C1.74408 3.375 1.6328 3.42109 1.55075 3.50314C1.4687 3.58519 1.42261 3.69647 1.42261 3.8125V11.25C1.42261 11.4821 1.51479 11.7046 1.67889 11.8687C1.84298 12.0328 2.06554 12.125 2.29761 12.125H11.9226C12.1547 12.125 12.3772 12.0328 12.5413 11.8687C12.7054 11.7046 12.7976 11.4821 12.7976 11.25V3.8125C12.7976 3.69647 12.7515 3.58519 12.6695 3.50314C12.5874 3.42109 12.4761 3.375 12.3601 3.375ZM7.11011 8.03164L2.98503 4.25H11.2352L7.11011 8.03164ZM5.50831 7.75L2.29761 10.6927V4.80727L5.50831 7.75ZM6.15581 8.34336L6.81206 8.94766C6.89278 9.02175 6.99835 9.06286 7.10792 9.06286C7.21749 9.06286 7.32306 9.02175 7.40378 8.94766L8.06003 8.34336L11.2319 11.25H2.98503L6.15581 8.34336ZM8.7119 7.75L11.9226 4.80672V10.6933L8.7119 7.75Z" fill="#0A0A0A"/>
</svg>
