<svg width="14" height="15" viewBox="0 0 14 15" fill="none" xmlns="http://www.w3.org/2000/svg">
<path opacity="0.2" d="M12.25 3.37256L7 8.18506L1.75 3.37256H12.25Z" fill="#0A0A0A"/>
<path d="M12.25 2.93506H1.75C1.63397 2.93506 1.52269 2.98115 1.44064 3.0632C1.35859 3.14525 1.3125 3.25653 1.3125 3.37256V10.8101C1.3125 11.0421 1.40469 11.2647 1.56878 11.4288C1.73288 11.5929 1.95544 11.6851 2.1875 11.6851H11.8125C12.0446 11.6851 12.2671 11.5929 12.4312 11.4288C12.5953 11.2647 12.6875 11.0421 12.6875 10.8101V3.37256C12.6875 3.25653 12.6414 3.14525 12.5594 3.0632C12.4773 2.98115 12.366 2.93506 12.25 2.93506ZM7 7.5917L2.87492 3.81006H11.1251L7 7.5917ZM5.3982 7.31006L2.1875 10.2528V4.36732L5.3982 7.31006ZM6.0457 7.90342L6.70195 8.50771C6.78267 8.58181 6.88825 8.62292 6.99781 8.62292C7.10738 8.62292 7.21296 8.58181 7.29367 8.50771L7.94992 7.90342L11.1218 10.8101H2.87492L6.0457 7.90342ZM8.6018 7.31006L11.8125 4.36678V10.2533L8.6018 7.31006Z" fill="#0A0A0A"/>
</svg>
