<svg width="10" height="13" viewBox="0 0 10 13" fill="none" xmlns="http://www.w3.org/2000/svg">
<path opacity="0.2" d="M8.9375 4.5H5L1.0625 1H8.9375V4.5ZM1.0625 8L5 11.9375V8H8.9375L5 4.5H1.0625V8Z" fill="#0A0A0A"/>
<path d="M9.37504 4.5V1C9.37504 0.883969 9.32894 0.772689 9.2469 0.690642C9.16485 0.608595 9.05357 0.562501 8.93754 0.562501H1.06254C0.973584 0.562295 0.886683 0.589209 0.813418 0.639653C0.740152 0.690098 0.684004 0.761677 0.652459 0.844848C0.620913 0.928018 0.615469 1.01883 0.636853 1.10517C0.658237 1.19152 0.705431 1.26929 0.772146 1.32813L3.8516 4.0625H1.06254C0.946504 4.0625 0.835224 4.10859 0.753177 4.19064C0.67113 4.27269 0.625036 4.38397 0.625036 4.5V8C0.624991 8.05747 0.636269 8.11439 0.658227 8.1675C0.680184 8.22061 0.71239 8.26887 0.753005 8.30953L4.6905 12.247C4.75169 12.3083 4.82968 12.35 4.91459 12.3669C4.9995 12.3838 5.08752 12.3752 5.16751 12.342C5.24749 12.3089 5.31585 12.2528 5.36391 12.1807C5.41198 12.1087 5.4376 12.0241 5.43754 11.9375V8.4375H8.93754C9.02649 8.43771 9.11339 8.41079 9.18666 8.36035C9.25992 8.3099 9.31607 8.23833 9.34761 8.15515C9.37916 8.07198 9.3846 7.98117 9.36322 7.89483C9.34184 7.80849 9.29464 7.73071 9.22793 7.67188L6.14847 4.9375H8.93754C9.05357 4.9375 9.16485 4.89141 9.2469 4.80936C9.32894 4.72731 9.37504 4.61603 9.37504 4.5ZM7.7891 7.5625H5.00004C4.884 7.5625 4.77272 7.60859 4.69068 7.69064C4.60863 7.77269 4.56254 7.88397 4.56254 8V10.8815L1.50004 7.81899V4.9375H4.83597L7.7891 7.5625ZM8.50004 4.0625H5.1641L2.21097 1.4375H8.50004V4.0625Z" fill="#0A0A0A"/>
</svg>
