<svg width="80" height="80" viewBox="0 0 80 80" fill="none" xmlns="http://www.w3.org/2000/svg">
<g filter="url(#filter0_d_89_123)">
<path d="M8.86914 64.1407C15.4306 64.2167 21.7559 61.7404 26.4535 57.2569C31.1511 52.7735 33.8362 46.6498 33.9182 40.2333C34.0002 33.8168 31.4722 27.633 26.8905 23.0422C22.3087 18.4514 16.0485 15.8297 9.48706 15.7539L9.34384 26.9688C12.8637 27.0094 16.222 28.4159 18.6799 30.8785C21.1378 33.3413 22.4938 36.6587 22.4499 40.1007C22.406 43.5429 20.9655 46.8279 18.4455 49.2331C15.9254 51.6383 12.5323 52.9666 9.0122 52.9259L8.86914 64.1407Z" fill="white"/>
</g>
<path d="M69.5968 15.4763C73.4026 15.4717 76.4878 18.5532 76.4878 22.359C76.4878 26.1648 73.4026 29.2537 69.5968 29.2583L42.974 29.2906C39.1683 29.2952 36.0831 26.2137 36.0831 22.4079C36.0831 18.6021 39.1683 15.5132 42.974 15.5086L69.5968 15.4763Z" fill="#5070E6"/>
<path d="M75.7892 22.4255C75.7458 25.8497 72.9764 28.5937 69.6037 28.5545C66.231 28.5153 63.5321 25.7076 63.5756 22.2835C63.6191 18.8593 66.3884 16.1153 69.7611 16.1545C73.1338 16.1937 75.8327 19.0013 75.7892 22.4255Z" fill="white"/>
<g filter="url(#filter1_i_89_123)">
<path d="M15.1305 39.9314C15.09 43.1195 12.4726 45.674 9.2844 45.637C6.09618 45.5999 3.54443 42.9853 3.58491 39.7971C3.62539 36.6089 6.24277 34.0545 9.43099 34.0915C12.6192 34.1286 15.171 36.7432 15.1305 39.9314Z" fill="#176169"/>
</g>
<path d="M15.131 39.9314C15.0905 43.1195 12.4731 45.674 9.28489 45.637C6.09666 45.5999 3.54492 42.9853 3.5854 39.7971C3.62588 36.6089 6.24326 34.0545 9.43148 34.0915C12.6197 34.1286 15.1714 36.7432 15.131 39.9314Z" fill="#5070E6"/>
<path d="M56.4083 33.2244C60.2141 33.2198 63.2993 36.3013 63.2993 40.107C63.2993 43.9128 60.2141 47.0018 56.4083 47.0064L43.3938 47.0221C39.588 47.0267 36.5028 43.9453 36.5028 40.1395C36.5028 36.3337 39.588 33.2447 43.3938 33.2401L56.4083 33.2244Z" fill="#0D0D0D"/>
<path d="M56.4153 46.2856C59.788 46.325 62.5574 43.5808 62.6008 40.1567C62.6443 36.7326 59.9455 33.925 56.5728 33.8857C53.2001 33.8465 50.4307 36.5905 50.3872 40.0147C50.3438 43.4388 53.0426 46.2464 56.4153 46.2856Z" fill="#5070E6"/>
<g filter="url(#filter2_d_89_123)">
<path d="M48.9699 57.6731C48.9266 61.089 46.1222 63.826 42.7063 63.7862C39.2903 63.7465 36.5563 60.9452 36.5997 57.5293C36.6431 54.1134 39.4474 51.3764 42.8633 51.4162C46.2793 51.4559 49.0133 54.2572 48.9699 57.6731Z" fill="#5070E6"/>
</g>
<path d="M56.4083 33.2083C60.2141 33.2037 63.2993 36.2851 63.2993 40.0909C63.2993 43.8967 60.2141 46.9857 56.4083 46.9903L43.3938 47.006C39.588 47.0106 36.5028 43.9292 36.5028 40.1234C36.5028 36.3176 39.588 33.2286 43.3938 33.224L56.4083 33.2083Z" fill="white"/>
<path d="M56.4153 46.2856C59.788 46.325 62.5574 43.5808 62.6008 40.1567C62.6443 36.7326 59.9455 33.925 56.5728 33.8857C53.2001 33.8465 50.4307 36.5905 50.3872 40.0147C50.3438 43.4388 53.0426 46.2464 56.4153 46.2856Z" fill="#5070E6"/>
<path d="M36.1209 57.6415C36.1255 61.4472 39.2144 64.5324 43.0203 64.5324C46.826 64.5324 49.9075 61.4472 49.9029 57.6415L49.8816 40.0907C49.877 36.285 46.7881 33.1997 42.9824 33.1997C39.1765 33.1997 36.095 36.285 36.0996 40.0907L36.1209 57.6415Z" fill="white"/>
<path d="M43.0238 63.4028C46.3966 63.442 49.1659 60.698 49.2094 57.2739C49.2529 53.8498 46.5539 51.042 43.1812 51.0029C39.8085 50.9637 37.0393 53.7077 36.9956 57.1319C36.9522 60.556 39.6511 63.3636 43.0238 63.4028Z" fill="#5070E6"/>
<mask id="mask0_89_123" style="mask-type:alpha" maskUnits="userSpaceOnUse" x="36" y="33" width="21" height="14">
<path d="M49.4098 33.2088C53.2156 33.2042 56.3008 36.2856 56.3008 40.0914C56.3008 43.8972 53.2156 46.9862 49.4098 46.9908L42.9857 46.9985C39.1799 47.0031 36.0947 43.9217 36.0947 40.1159C36.0947 36.3101 39.1799 33.2211 42.9857 33.2165L49.4098 33.2088Z" fill="#FF3232"/>
</mask>
<g mask="url(#mask0_89_123)">
<path d="M36.1179 57.6418C36.1225 61.4477 39.2114 64.5328 43.0172 64.5328C46.8231 64.5328 49.9044 61.4477 49.8998 57.6418L49.8786 40.0912C49.874 36.2855 46.7852 33.2002 42.9793 33.2002C39.1734 33.2002 36.0921 36.2854 36.0967 40.0912L36.1179 57.6418Z" fill="#A0BFF2"/>
</g>
<defs>
<filter id="filter0_d_89_123" x="7.82914" y="14.4539" width="27.1308" height="50.4687" filterUnits="userSpaceOnUse" color-interpolation-filters="sRGB">
<feFlood flood-opacity="0" result="BackgroundImageFix"/>
<feColorMatrix in="SourceAlpha" type="matrix" values="0 0 0 0 0 0 0 0 0 0 0 0 0 0 0 0 0 0 127 0" result="hardAlpha"/>
<feOffset dy="-0.26"/>
<feGaussianBlur stdDeviation="0.52"/>
<feComposite in2="hardAlpha" operator="out"/>
<feColorMatrix type="matrix" values="0 0 0 0 0 0 0 0 0 0 0 0 0 0 0 0 0 0 0.25 0"/>
<feBlend mode="normal" in2="BackgroundImageFix" result="effect1_dropShadow_89_123"/>
<feBlend mode="normal" in="SourceGraphic" in2="effect1_dropShadow_89_123" result="shape"/>
</filter>
<filter id="filter1_i_89_123" x="3.58447" y="34.0913" width="11.5464" height="12.5859" filterUnits="userSpaceOnUse" color-interpolation-filters="sRGB">
<feFlood flood-opacity="0" result="BackgroundImageFix"/>
<feBlend mode="normal" in="SourceGraphic" in2="BackgroundImageFix" result="shape"/>
<feColorMatrix in="SourceAlpha" type="matrix" values="0 0 0 0 0 0 0 0 0 0 0 0 0 0 0 0 0 0 127 0" result="hardAlpha"/>
<feOffset dy="1.04"/>
<feGaussianBlur stdDeviation="0.52"/>
<feComposite in2="hardAlpha" operator="arithmetic" k2="-1" k3="1"/>
<feColorMatrix type="matrix" values="0 0 0 0 0 0 0 0 0 0 0 0 0 0 0 0 0 0 0.25 0"/>
<feBlend mode="normal" in2="shape" result="effect1_innerShadow_89_123"/>
</filter>
<filter id="filter2_d_89_123" x="35.5591" y="51.4155" width="14.4511" height="14.4511" filterUnits="userSpaceOnUse" color-interpolation-filters="sRGB">
<feFlood flood-opacity="0" result="BackgroundImageFix"/>
<feColorMatrix in="SourceAlpha" type="matrix" values="0 0 0 0 0 0 0 0 0 0 0 0 0 0 0 0 0 0 127 0" result="hardAlpha"/>
<feOffset dy="1.04"/>
<feGaussianBlur stdDeviation="0.52"/>
<feComposite in2="hardAlpha" operator="out"/>
<feColorMatrix type="matrix" values="0 0 0 0 0 0 0 0 0 0 0 0 0 0 0 0 0 0 0.25 0"/>
<feBlend mode="normal" in2="BackgroundImageFix" result="effect1_dropShadow_89_123"/>
<feBlend mode="normal" in="SourceGraphic" in2="effect1_dropShadow_89_123" result="shape"/>
</filter>
</defs>
</svg>
