<svg width="15" height="15" viewBox="0 0 15 15" fill="none" xmlns="http://www.w3.org/2000/svg">
<path opacity="0.2" d="M10.5601 3.8125V11.6875H3.56006V3.8125H10.5601Z" fill="#0A0A0A"/>
<path d="M9.68506 1.625H4.43506C4.08696 1.625 3.75312 1.76328 3.50698 2.00942C3.26084 2.25556 3.12256 2.5894 3.12256 2.9375V12.5625C3.12256 12.9106 3.26084 13.2444 3.50698 13.4906C3.75312 13.7367 4.08696 13.875 4.43506 13.875H9.68506C10.0332 13.875 10.367 13.7367 10.6131 13.4906C10.8593 13.2444 10.9976 12.9106 10.9976 12.5625V2.9375C10.9976 2.5894 10.8593 2.25556 10.6131 2.00942C10.367 1.76328 10.0332 1.625 9.68506 1.625ZM3.99756 4.25H10.1226V11.25H3.99756V4.25ZM4.43506 2.5H9.68506C9.80109 2.5 9.91237 2.54609 9.99442 2.62814C10.0765 2.71019 10.1226 2.82147 10.1226 2.9375V3.375H3.99756V2.9375C3.99756 2.82147 4.04365 2.71019 4.1257 2.62814C4.20775 2.54609 4.31903 2.5 4.43506 2.5ZM9.68506 13H4.43506C4.31903 13 4.20775 12.9539 4.1257 12.8719C4.04365 12.7898 3.99756 12.6785 3.99756 12.5625V12.125H10.1226V12.5625C10.1226 12.6785 10.0765 12.7898 9.99442 12.8719C9.91237 12.9539 9.80109 13 9.68506 13Z" fill="#0A0A0A"/>
</svg>
