<svg width="15" height="15" viewBox="0 0 15 15" fill="none" xmlns="http://www.w3.org/2000/svg">
<path opacity="0.2" d="M11.3574 4.25V5.125H10.0449C9.81286 5.125 9.5903 5.21719 9.4262 5.38128C9.26211 5.54538 9.16992 5.76794 9.16992 6V10.375H2.60742C2.37536 10.375 2.1528 10.2828 1.9887 10.1187C1.82461 9.95462 1.73242 9.73206 1.73242 9.5V4.25C1.73242 4.01794 1.82461 3.79538 1.9887 3.63128C2.1528 3.46719 2.37536 3.375 2.60742 3.375H10.4824C10.7145 3.375 10.937 3.46719 11.1011 3.63128C11.2652 3.79538 11.3574 4.01794 11.3574 4.25Z" fill="#0A0A0A"/>
<path d="M12.6699 4.6875H11.7949V4.25C11.7949 3.9019 11.6566 3.56806 11.4105 3.32192C11.1644 3.07578 10.8305 2.9375 10.4824 2.9375H2.60742C2.25933 2.9375 1.92549 3.07578 1.67934 3.32192C1.4332 3.56806 1.29492 3.9019 1.29492 4.25V9.5C1.29492 9.8481 1.4332 10.1819 1.67934 10.4281C1.92549 10.6742 2.25933 10.8125 2.60742 10.8125H8.73242V11.25C8.73242 11.5981 8.8707 11.9319 9.11684 12.1781C9.36299 12.4242 9.69683 12.5625 10.0449 12.5625H12.6699C13.018 12.5625 13.3519 12.4242 13.598 12.1781C13.8441 11.9319 13.9824 11.5981 13.9824 11.25V6C13.9824 5.6519 13.8441 5.31806 13.598 5.07192C13.3519 4.82578 13.018 4.6875 12.6699 4.6875ZM2.60742 9.9375C2.49139 9.9375 2.38011 9.89141 2.29806 9.80936C2.21602 9.72731 2.16992 9.61603 2.16992 9.5V4.25C2.16992 4.13397 2.21602 4.02269 2.29806 3.94064C2.38011 3.85859 2.49139 3.8125 2.60742 3.8125H10.4824C10.5985 3.8125 10.7097 3.85859 10.7918 3.94064C10.8738 4.02269 10.9199 4.13397 10.9199 4.25V4.6875H10.0449C9.69683 4.6875 9.36299 4.82578 9.11684 5.07192C8.8707 5.31806 8.73242 5.6519 8.73242 6V9.9375H2.60742ZM13.1074 11.25C13.1074 11.366 13.0613 11.4773 12.9793 11.5594C12.8972 11.6414 12.786 11.6875 12.6699 11.6875H10.0449C9.92889 11.6875 9.81761 11.6414 9.73556 11.5594C9.65351 11.4773 9.60742 11.366 9.60742 11.25V6C9.60742 5.88397 9.65351 5.77269 9.73556 5.69064C9.81761 5.60859 9.92889 5.5625 10.0449 5.5625H12.6699C12.786 5.5625 12.8972 5.60859 12.9793 5.69064C13.0613 5.77269 13.1074 5.88397 13.1074 6V11.25ZM7.85742 12.125C7.85742 12.241 7.81133 12.3523 7.72928 12.4344C7.64723 12.5164 7.53595 12.5625 7.41992 12.5625H5.23242C5.11639 12.5625 5.00511 12.5164 4.92306 12.4344C4.84102 12.3523 4.79492 12.241 4.79492 12.125C4.79492 12.009 4.84102 11.8977 4.92306 11.8156C5.00511 11.7336 5.11639 11.6875 5.23242 11.6875H7.41992C7.53595 11.6875 7.64723 11.7336 7.72928 11.8156C7.81133 11.8977 7.85742 12.009 7.85742 12.125ZM12.2324 6.875C12.2324 6.99103 12.1863 7.10231 12.1043 7.18436C12.0222 7.26641 11.911 7.3125 11.7949 7.3125H10.9199C10.8039 7.3125 10.6926 7.26641 10.6106 7.18436C10.5285 7.10231 10.4824 6.99103 10.4824 6.875C10.4824 6.75897 10.5285 6.64769 10.6106 6.56564C10.6926 6.48359 10.8039 6.4375 10.9199 6.4375H11.7949C11.911 6.4375 12.0222 6.48359 12.1043 6.56564C12.1863 6.64769 12.2324 6.75897 12.2324 6.875Z" fill="#0A0A0A"/>
</svg>
