<svg width="24" height="23" viewBox="0 0 24 23" fill="none" xmlns="http://www.w3.org/2000/svg">
<path d="M5.63245 12.0003C5.56675 12.0003 5.5017 11.9873 5.441 11.9622C5.3803 11.9371 5.32515 11.9002 5.2787 11.8538C5.23224 11.8073 5.19539 11.7521 5.17025 11.6914C5.14511 11.6308 5.13217 11.5657 5.13217 11.5C5.13217 11.4343 5.14511 11.3692 5.17025 11.3086C5.19539 11.2479 5.23224 11.1927 5.2787 11.1462C5.32515 11.0998 5.3803 11.0629 5.441 11.0378C5.5017 11.0127 5.56675 10.9997 5.63245 10.9997L11.4966 11.0002L11.4961 5.13604C11.4961 5.00336 11.5488 4.87611 11.6427 4.78229C11.7365 4.68847 11.8637 4.63576 11.9964 4.63576C12.1291 4.63576 12.2563 4.68847 12.3502 4.78229C12.444 4.87611 12.4967 5.00336 12.4967 5.13604L12.4962 11.0002L18.3604 10.9997C18.4931 10.9997 18.6203 11.0524 18.7141 11.1463C18.8079 11.2401 18.8606 11.3673 18.8606 11.5C18.8606 11.6327 18.8079 11.7599 18.7141 11.8537C18.6203 11.9476 18.4931 12.0003 18.3604 12.0003L12.4962 11.9998L12.4967 17.864C12.4967 17.9966 12.444 18.1239 12.3502 18.2177C12.2563 18.3115 12.1291 18.3642 11.9964 18.3642C11.8637 18.3642 11.7365 18.3115 11.6427 18.2177C11.5488 18.1239 11.4961 17.9966 11.4961 17.864L11.4966 11.9998L5.63245 12.0003Z" fill="#0A0A0A"/>
</svg>
