<svg width="12" height="12" viewBox="0 0 12 12" fill="none" xmlns="http://www.w3.org/2000/svg">
<path d="M10.7307 1.43506C10.7307 1.29831 10.6764 1.16716 10.5797 1.07046C10.483 0.973758 10.3518 0.919434 10.2151 0.919434C8.29095 0.919434 6.34791 3.00514 5.23502 4.44287C4.82853 4.33792 4.40341 4.32742 3.99225 4.41219C3.58108 4.49696 3.19477 4.67474 2.86294 4.93191C2.53112 5.18907 2.26257 5.5188 2.07789 5.89581C1.89321 6.27283 1.79731 6.68712 1.79752 7.10693C1.79752 7.62256 1.66431 8.08275 1.40092 8.47162C1.29031 8.64022 1.15286 8.78958 0.994002 8.91377C0.901386 8.97389 0.830762 9.06242 0.792723 9.16608C0.754684 9.26974 0.751281 9.38293 0.783025 9.48869C0.815442 9.59569 0.881566 9.68934 0.971541 9.7557C1.06152 9.82206 1.17052 9.85757 1.28232 9.85693H4.54795C4.96736 9.85642 5.38111 9.75999 5.75752 9.575C6.13394 9.39001 6.46306 9.12137 6.7197 8.78964C6.97633 8.4579 7.15369 8.07186 7.2382 7.66105C7.32271 7.25023 7.31214 6.82553 7.20728 6.41943C8.64631 5.30439 10.7307 3.36006 10.7307 1.43506ZM9.5972 2.05338C9.42533 2.60854 9.03217 3.23459 8.44049 3.89717C8.31158 4.04283 8.1758 4.18506 8.03873 4.32213C7.82969 4.05988 7.59187 3.82192 7.32974 3.61271C7.46681 3.47564 7.60861 3.34115 7.75427 3.21096C8.41685 2.61885 9.04248 2.22697 9.5972 2.05338ZM4.54623 8.82568H2.39478C2.6875 8.3006 2.83771 7.70805 2.83049 7.10693C2.83049 6.767 2.93129 6.43469 3.12015 6.15205C3.30901 5.8694 3.57744 5.6491 3.8915 5.51902C4.20556 5.38893 4.55114 5.35489 4.88455 5.42121C5.21795 5.48753 5.5242 5.65122 5.76458 5.89159C6.00495 6.13197 6.16864 6.43822 6.23496 6.77162C6.30128 7.10503 6.26724 7.45061 6.13715 7.76467C6.00707 8.07873 5.78677 8.34716 5.50412 8.53602C5.22148 8.72488 4.88917 8.82568 4.54924 8.82568H4.54623ZM6.18678 4.90178C6.32084 4.73291 6.46822 4.55416 6.62635 4.37111C6.87283 4.55909 7.09294 4.77935 7.28076 5.02596C7.09771 5.18408 6.91896 5.33146 6.7501 5.46553C6.59049 5.25143 6.40075 5.06154 6.18678 4.90178Z" fill="white"/>
</svg>
