<svg width="15" height="15" viewBox="0 0 15 15" fill="none" xmlns="http://www.w3.org/2000/svg">
<path opacity="0.2" d="M12.6724 3.43506V12.1851C12.6724 12.3011 12.6263 12.4124 12.5442 12.4944C12.4622 12.5765 12.3509 12.6226 12.2349 12.6226H4.35986L3.04736 11.3101V3.43506C3.04736 3.31903 3.09346 3.20775 3.1755 3.1257C3.25755 3.04365 3.36883 2.99756 3.48486 2.99756H12.2349C12.3509 2.99756 12.4622 3.04365 12.5442 3.1257C12.6263 3.20775 12.6724 3.31903 12.6724 3.43506Z" fill="#0A0A0A"/>
<path d="M13.1099 3.43506V12.1851C13.1099 12.4171 13.0177 12.6397 12.8536 12.8038C12.6895 12.9679 12.4669 13.0601 12.2349 13.0601H8.29736C8.18133 13.0601 8.07005 13.014 7.988 12.9319C7.90596 12.8499 7.85986 12.7386 7.85986 12.6226C7.85986 12.5065 7.90596 12.3952 7.988 12.3132C8.07005 12.2312 8.18133 12.1851 8.29736 12.1851H12.2349V3.43506H3.48486V8.68506C3.48486 8.80109 3.43877 8.91237 3.35672 8.99442C3.27467 9.07646 3.16339 9.12256 3.04736 9.12256C2.93133 9.12256 2.82005 9.07646 2.738 8.99442C2.65596 8.91237 2.60986 8.80109 2.60986 8.68506V3.43506C2.60986 3.20299 2.70205 2.98043 2.86614 2.81634C3.03024 2.65225 3.2528 2.56006 3.48486 2.56006H12.2349C12.4669 2.56006 12.6895 2.65225 12.8536 2.81634C13.0177 2.98043 13.1099 3.20299 13.1099 3.43506ZM7.73189 9.25053C7.69126 9.20985 7.64301 9.17758 7.5899 9.15556C7.53679 9.13355 7.47986 9.12221 7.42236 9.12221C7.36487 9.12221 7.30794 9.13355 7.25483 9.15556C7.20171 9.17758 7.15346 9.20985 7.11283 9.25053L4.35986 12.004L3.35689 11.0005C3.31625 10.9599 3.26799 10.9276 3.21488 10.9056C3.16177 10.8836 3.10485 10.8723 3.04736 10.8723C2.98988 10.8723 2.93295 10.8836 2.87985 10.9056C2.82674 10.9276 2.77848 10.9599 2.73783 11.0005C2.69718 11.0412 2.66494 11.0894 2.64294 11.1425C2.62094 11.1957 2.60962 11.2526 2.60962 11.3101C2.60962 11.3675 2.62094 11.4245 2.64294 11.4776C2.66494 11.5307 2.69718 11.5789 2.73783 11.6196L4.05033 12.9321C4.09096 12.9728 4.13921 13.005 4.19233 13.0271C4.24544 13.0491 4.30237 13.0604 4.35986 13.0604C4.41736 13.0604 4.47429 13.0491 4.5274 13.0271C4.58051 13.005 4.62876 12.9728 4.66939 12.9321L7.73189 9.86959C7.77257 9.82896 7.80484 9.78071 7.82686 9.72759C7.84887 9.67448 7.86021 9.61755 7.86021 9.56006C7.86021 9.50256 7.84887 9.44563 7.82686 9.39252C7.80484 9.33941 7.77257 9.29116 7.73189 9.25053Z" fill="#0A0A0A"/>
</svg>
