<svg width="14" height="15" viewBox="0 0 14 15" fill="none" xmlns="http://www.w3.org/2000/svg">
<path opacity="0.2" d="M10.5 6.93506C10.5 7.80035 10.2434 8.64621 9.76268 9.36568C9.28195 10.0851 8.59867 10.6459 7.79924 10.977C6.99981 11.3082 6.12015 11.3948 5.27148 11.226C4.42282 11.0572 3.64326 10.6405 3.03141 10.0287C2.41956 9.4168 2.00288 8.63725 1.83407 7.78858C1.66526 6.93991 1.7519 6.06025 2.08303 5.26082C2.41416 4.46139 2.97492 3.77811 3.69438 3.29738C4.41385 2.81665 5.25971 2.56006 6.125 2.56006C6.69954 2.56006 7.26844 2.67322 7.79924 2.89309C8.33004 3.11295 8.81234 3.43521 9.21859 3.84147C9.62485 4.24772 9.94711 4.73002 10.167 5.26082C10.3868 5.79162 10.5 6.36053 10.5 6.93506Z" fill="#0A0A0A"/>
<path d="M12.5595 12.7505L9.82187 10.0128C10.6169 9.05933 11.0137 7.836 10.9298 6.59736C10.8458 5.35872 10.2875 4.20013 9.37111 3.36262C8.45466 2.52511 7.25061 2.07317 6.00943 2.10081C4.76826 2.12845 3.58552 2.63354 2.70727 3.51102C1.82902 4.38849 1.32288 5.57078 1.29414 6.81194C1.2654 8.05309 1.71628 9.25754 2.55298 10.1747C3.38968 11.0919 4.54778 11.6512 5.78635 11.7362C7.02491 11.8213 8.24859 11.4256 9.20281 10.6314L11.9405 13.3696C11.9811 13.4102 12.0294 13.4425 12.0825 13.4645C12.1356 13.4865 12.1925 13.4978 12.25 13.4978C12.3075 13.4978 12.3644 13.4865 12.4175 13.4645C12.4706 13.4425 12.5189 13.4102 12.5595 13.3696C12.6002 13.3289 12.6324 13.2807 12.6544 13.2276C12.6764 13.1744 12.6877 13.1175 12.6877 13.06C12.6877 13.0026 12.6764 12.9456 12.6544 12.8925C12.6324 12.8394 12.6002 12.7912 12.5595 12.7505ZM2.1875 6.93504C2.1875 6.15627 2.41843 5.395 2.85109 4.74748C3.28375 4.09996 3.8987 3.59528 4.61818 3.29726C5.33767 2.99924 6.12937 2.92127 6.89317 3.0732C7.65697 3.22512 8.35856 3.60013 8.90923 4.1508C9.4599 4.70147 9.83491 5.40307 9.98684 6.16687C10.1388 6.93067 10.0608 7.72237 9.76278 8.44185C9.46476 9.16134 8.96008 9.77629 8.31256 10.2089C7.66504 10.6416 6.90376 10.8725 6.125 10.8725C5.08106 10.8714 4.08022 10.4562 3.34204 9.71799C2.60387 8.97982 2.18866 7.97897 2.1875 6.93504Z" fill="#0A0A0A"/>
</svg>
