<svg width="15" height="15" viewBox="0 0 15 15" fill="none" xmlns="http://www.w3.org/2000/svg">
<path opacity="0.2" d="M12.6724 7.81006C12.6724 8.76188 12.3901 9.69233 11.8613 10.4837C11.3325 11.2752 10.5809 11.892 9.70153 12.2562C8.82216 12.6205 7.85453 12.7158 6.92099 12.5301C5.98746 12.3444 5.12995 11.8861 4.45691 11.213C3.78387 10.54 3.32553 9.68246 3.13984 8.74893C2.95414 7.8154 3.04945 6.84776 3.4137 5.96839C3.77794 5.08903 4.39477 4.33742 5.18618 3.80861C5.9776 3.27981 6.90804 2.99756 7.85987 2.99756C9.13622 2.99756 10.3603 3.50459 11.2628 4.40711C12.1653 5.30963 12.6724 6.5337 12.6724 7.81006Z" fill="#0A0A0A"/>
<path d="M13.1099 7.81028C13.1099 9.04646 12.6738 10.243 11.8782 11.1892C11.0827 12.1354 9.97881 12.7705 8.76099 12.9826C7.54316 13.1948 6.28952 12.9705 5.22087 12.3491C4.15222 11.7277 3.33711 10.7492 2.91911 9.5858C2.50111 8.42244 2.50703 7.1489 2.93582 5.98947C3.36462 4.83005 4.18879 3.85913 5.26316 3.2477C6.33754 2.63628 7.59321 2.42358 8.80901 2.64707C10.0248 2.87056 11.1228 3.5159 11.9095 4.46943C11.9485 4.51337 11.9783 4.56474 11.9971 4.62046C12.0158 4.67618 12.0232 4.73511 12.0187 4.79372C12.0141 4.85234 11.9978 4.90945 11.9708 4.96163C11.9437 5.01381 11.9063 5.06 11.861 5.09743C11.8157 5.13486 11.7632 5.16277 11.7069 5.17949C11.6505 5.19621 11.5914 5.2014 11.5329 5.19475C11.4745 5.18809 11.4181 5.16973 11.3669 5.14076C11.3157 5.1118 11.2709 5.07281 11.2352 5.02614C10.5917 4.24593 9.69781 3.71273 8.70555 3.51727C7.71329 3.3218 6.68395 3.47614 5.79265 3.95402C4.90135 4.4319 4.20314 5.20382 3.81679 6.13844C3.43045 7.07307 3.37983 8.11267 3.67355 9.08041C3.96727 10.0481 4.58719 10.8842 5.42785 11.4465C6.26851 12.0087 7.27798 12.2623 8.28453 12.1641C9.29109 12.066 10.2326 11.6222 10.9488 10.9081C11.665 10.1941 12.1117 9.25403 12.213 8.24778H7.85986C7.74383 8.24778 7.63255 8.20169 7.5505 8.11964C7.46846 8.0376 7.42236 7.92632 7.42236 7.81028C7.42236 7.69425 7.46846 7.58297 7.5505 7.50093C7.63255 7.41888 7.74383 7.37278 7.85986 7.37278H12.6724C12.7884 7.37278 12.8997 7.41888 12.9817 7.50093C13.0638 7.58297 13.1099 7.69425 13.1099 7.81028Z" fill="#0A0A0A"/>
</svg>
