<svg width="14" height="15" viewBox="0 0 14 15" fill="none" xmlns="http://www.w3.org/2000/svg">
<path opacity="0.2" d="M12.25 7.75C12.25 8.78835 11.9421 9.80339 11.3652 10.6667C10.7883 11.5301 9.9684 12.203 9.00909 12.6004C8.04978 12.9977 6.99418 13.1017 5.97578 12.8991C4.95738 12.6966 4.02192 12.1965 3.28769 11.4623C2.55347 10.7281 2.05345 9.79262 1.85088 8.77422C1.64831 7.75582 1.75227 6.70022 2.14963 5.74091C2.54699 4.7816 3.2199 3.96166 4.08326 3.38478C4.94662 2.80791 5.96165 2.5 7 2.5C8.39239 2.5 9.72775 3.05312 10.7123 4.03769C11.6969 5.02226 12.25 6.35761 12.25 7.75Z" fill="#0A0A0A"/>
<path d="M7 2.0625C5.87512 2.0625 4.7755 2.39607 3.8402 3.02102C2.90489 3.64597 2.17591 4.53423 1.74544 5.57349C1.31496 6.61274 1.20233 7.75631 1.42179 8.85958C1.64124 9.96284 2.18292 10.9763 2.97833 11.7717C3.77374 12.5671 4.78716 13.1088 5.89043 13.3282C6.99369 13.5477 8.13726 13.435 9.17651 13.0046C10.2158 12.5741 11.104 11.8451 11.729 10.9098C12.3539 9.9745 12.6875 8.87488 12.6875 7.75C12.6859 6.24207 12.0862 4.79636 11.0199 3.73009C9.95365 2.66382 8.50793 2.06409 7 2.0625ZM7.4375 12.5423V9.0625H8.75C8.86603 9.0625 8.97731 9.01641 9.05936 8.93436C9.14141 8.85231 9.1875 8.74103 9.1875 8.625C9.1875 8.50897 9.14141 8.39769 9.05936 8.31564C8.97731 8.23359 8.86603 8.1875 8.75 8.1875H7.4375V6.875C7.4375 6.64294 7.52969 6.42038 7.69378 6.25628C7.85788 6.09219 8.08044 6 8.3125 6H9.1875C9.30353 6 9.41481 5.95391 9.49686 5.87186C9.57891 5.78981 9.625 5.67853 9.625 5.5625C9.625 5.44647 9.57891 5.33519 9.49686 5.25314C9.41481 5.17109 9.30353 5.125 9.1875 5.125H8.3125C7.84837 5.125 7.40325 5.30937 7.07507 5.63756C6.74688 5.96575 6.5625 6.41087 6.5625 6.875V8.1875H5.25C5.13397 8.1875 5.02269 8.23359 4.94064 8.31564C4.8586 8.39769 4.8125 8.50897 4.8125 8.625C4.8125 8.74103 4.8586 8.85231 4.94064 8.93436C5.02269 9.01641 5.13397 9.0625 5.25 9.0625H6.5625V12.5423C5.32919 12.4297 4.18675 11.846 3.37282 10.9126C2.55889 9.97914 2.13614 8.76788 2.19249 7.53072C2.24884 6.29356 2.77996 5.12574 3.67537 4.27018C4.57079 3.41463 5.76156 2.93719 7 2.93719C8.23845 2.93719 9.42922 3.41463 10.3246 4.27018C11.22 5.12574 11.7512 6.29356 11.8075 7.53072C11.8639 8.76788 11.4411 9.97914 10.6272 10.9126C9.81326 11.846 8.67082 12.4297 7.4375 12.5423Z" fill="#0A0A0A"/>
</svg>
