<svg width="15" height="15" viewBox="0 0 15 15" fill="none" xmlns="http://www.w3.org/2000/svg">
<path opacity="0.2" d="M13.6449 7.59131C13.6451 8.13429 13.4769 8.66396 13.1635 9.10734C12.8501 9.55073 12.4069 9.88602 11.8949 10.067V10.4351C11.8949 11.0152 11.6645 11.5716 11.2542 11.9819C10.844 12.3921 10.2876 12.6226 9.70743 12.6226C9.12727 12.6226 8.57087 12.3921 8.16063 11.9819C7.7504 11.5716 7.51993 11.0152 7.51993 10.4351C7.51993 11.0152 7.28946 11.5716 6.87922 11.9819C6.46899 12.3921 5.91259 12.6226 5.33243 12.6226C4.75227 12.6226 4.19587 12.3921 3.78563 11.9819C3.3754 11.5716 3.14493 11.0152 3.14493 10.4351V10.067C2.63256 9.88641 2.18886 9.55129 1.87499 9.10787C1.56113 8.66445 1.39258 8.13457 1.39258 7.59131C1.39258 7.04805 1.56113 6.51817 1.87499 6.07475C2.18886 5.63133 2.63256 5.29621 3.14493 5.11561V4.74756C3.14493 4.1674 3.3754 3.611 3.78563 3.20076C4.19587 2.79053 4.75227 2.56006 5.33243 2.56006C5.91259 2.56006 6.46899 2.79053 6.87922 3.20076C7.28946 3.611 7.51993 4.1674 7.51993 4.74756C7.51993 4.1674 7.7504 3.611 8.16063 3.20076C8.57087 2.79053 9.12727 2.56006 9.70743 2.56006C10.2876 2.56006 10.844 2.79053 11.2542 3.20076C11.6645 3.611 11.8949 4.1674 11.8949 4.74756V5.11561C12.4069 5.2966 12.8501 5.63188 13.1635 6.07527C13.4769 6.51866 13.6451 7.04833 13.6449 7.59131Z" fill="#0A0A0A"/>
<path d="M14.0824 7.5914C14.0819 7.01189 13.9172 6.4444 13.6075 5.95458C13.2978 5.46477 12.8557 5.07268 12.3324 4.82367V4.74765C12.3319 4.18394 12.15 3.63537 11.8135 3.1831C11.477 2.73084 11.0039 2.3989 10.4641 2.23641C9.9243 2.07393 9.34655 2.08952 8.81632 2.28089C8.28609 2.47225 7.83154 2.82922 7.51994 3.29898C7.20834 2.82922 6.75379 2.47225 6.22356 2.28089C5.69333 2.08952 5.11558 2.07393 4.57579 2.23641C4.03601 2.3989 3.56287 2.73084 3.22639 3.1831C2.8899 3.63537 2.70795 4.18394 2.70744 4.74765V4.82367C2.18372 5.07199 1.74122 5.46385 1.43137 5.95369C1.12151 6.44353 0.957031 7.01124 0.957031 7.59085C0.957031 8.17047 1.12151 8.73818 1.43137 9.22802C1.74122 9.71786 2.18372 10.1097 2.70744 10.358V10.4352C2.70795 10.9989 2.8899 11.5474 3.22639 11.9997C3.56287 12.452 4.03601 12.7839 4.57579 12.9464C5.11558 13.1089 5.69333 13.0933 6.22356 12.9019C6.75379 12.7106 7.20834 12.3536 7.51994 11.8838C7.83154 12.3536 8.28609 12.7106 8.81632 12.9019C9.34655 13.0933 9.9243 13.1089 10.4641 12.9464C11.0039 12.7839 11.477 12.452 11.8135 11.9997C12.15 11.5474 12.3319 10.9989 12.3324 10.4352V10.358C12.8556 10.1092 13.2977 9.71731 13.6074 9.22769C13.9171 8.73807 14.0818 8.17075 14.0824 7.5914ZM5.33244 12.1852C4.90093 12.1851 4.48465 12.0256 4.16356 11.7373C3.84248 11.449 3.63922 11.0523 3.59283 10.6233C3.73431 10.6435 3.87703 10.6537 4.01994 10.6539H4.45744C4.57347 10.6539 4.68475 10.6078 4.7668 10.5258C4.84885 10.4437 4.89494 10.3324 4.89494 10.2164C4.89494 10.1004 4.84885 9.98909 4.7668 9.90704C4.68475 9.82499 4.57347 9.7789 4.45744 9.7789H4.01994C3.50345 9.7795 3.00341 9.59733 2.60834 9.26464C2.21327 8.93195 1.94866 8.4702 1.86136 7.96114C1.77406 7.45208 1.8697 6.92855 2.13135 6.48324C2.393 6.03793 2.80378 5.69956 3.29096 5.52804C3.3762 5.49786 3.45 5.44201 3.50219 5.36817C3.55439 5.29433 3.58243 5.20613 3.58244 5.1157V4.74765C3.58244 4.28352 3.76682 3.8384 4.095 3.51021C4.42319 3.18202 4.86831 2.99765 5.33244 2.99765C5.79657 2.99765 6.24169 3.18202 6.56988 3.51021C6.89807 3.8384 7.08244 4.28352 7.08244 4.74765V8.48062C6.60202 8.04853 5.97859 7.80967 5.33244 7.81015C5.21641 7.81015 5.10513 7.85624 5.02308 7.93829C4.94103 8.02034 4.89494 8.13162 4.89494 8.24765C4.89494 8.36368 4.94103 8.47496 5.02308 8.55701C5.10513 8.63906 5.21641 8.68515 5.33244 8.68515C5.79657 8.68515 6.24169 8.86952 6.56988 9.19771C6.89807 9.5259 7.08244 9.97102 7.08244 10.4352C7.08244 10.8993 6.89807 11.3444 6.56988 11.6726C6.24169 12.0008 5.79657 12.1852 5.33244 12.1852ZM11.0199 9.7789H10.5824C10.4664 9.7789 10.3551 9.82499 10.2731 9.90704C10.191 9.98909 10.1449 10.1004 10.1449 10.2164C10.1449 10.3324 10.191 10.4437 10.2731 10.5258C10.3551 10.6078 10.4664 10.6539 10.5824 10.6539H11.0199C11.1629 10.6537 11.3056 10.6435 11.4471 10.6233C11.4107 10.9594 11.2778 11.2778 11.0643 11.54C10.8508 11.8022 10.566 11.997 10.2442 12.1007C9.92239 12.2045 9.57743 12.2128 9.25101 12.1246C8.9246 12.0365 8.6307 11.8557 8.40486 11.6041C8.17901 11.3525 8.03089 11.0408 7.97841 10.7068C7.92592 10.3728 7.97131 10.0308 8.1091 9.722C8.24688 9.41324 8.47115 9.15101 8.75481 8.967C9.03846 8.783 9.36934 8.6851 9.70744 8.68515C9.82347 8.68515 9.93475 8.63906 10.0168 8.55701C10.0988 8.47496 10.1449 8.36368 10.1449 8.24765C10.1449 8.13162 10.0988 8.02034 10.0168 7.93829C9.93475 7.85624 9.82347 7.81015 9.70744 7.81015C9.06129 7.80967 8.43786 8.04853 7.95744 8.48062V4.74765C7.95744 4.28352 8.14182 3.8384 8.47 3.51021C8.79819 3.18202 9.24331 2.99765 9.70744 2.99765C10.1716 2.99765 10.6167 3.18202 10.9449 3.51021C11.2731 3.8384 11.4574 4.28352 11.4574 4.74765V5.1157C11.4575 5.20613 11.4855 5.29433 11.5377 5.36817C11.5899 5.44201 11.6637 5.49786 11.7489 5.52804C12.2361 5.69956 12.6469 6.03793 12.9085 6.48324C13.1702 6.92855 13.2658 7.45208 13.1785 7.96114C13.0912 8.4702 12.8266 8.93195 12.4315 9.26464C12.0365 9.59733 11.5364 9.7795 11.0199 9.7789ZM11.8949 6.93515C11.8949 7.05118 11.8488 7.16246 11.7668 7.24451C11.6848 7.32656 11.5735 7.37265 11.4574 7.37265H11.2387C10.7165 7.37265 10.2158 7.16523 9.84657 6.79602C9.47736 6.4268 9.26994 5.92605 9.26994 5.4039V5.18515C9.26994 5.06912 9.31603 4.95784 9.39808 4.87579C9.48013 4.79374 9.59141 4.74765 9.70744 4.74765C9.82347 4.74765 9.93475 4.79374 10.0168 4.87579C10.0988 4.95784 10.1449 5.06912 10.1449 5.18515V5.4039C10.1449 5.69398 10.2602 5.97218 10.4653 6.1773C10.6704 6.38242 10.9486 6.49765 11.2387 6.49765H11.4574C11.5735 6.49765 11.6848 6.54374 11.7668 6.62579C11.8488 6.70784 11.8949 6.81912 11.8949 6.93515ZM3.80119 7.37265H3.58244C3.46641 7.37265 3.35513 7.32656 3.27308 7.24451C3.19104 7.16246 3.14494 7.05118 3.14494 6.93515C3.14494 6.81912 3.19104 6.70784 3.27308 6.62579C3.35513 6.54374 3.46641 6.49765 3.58244 6.49765H3.80119C4.09127 6.49765 4.36947 6.38242 4.57459 6.1773C4.77971 5.97218 4.89494 5.69398 4.89494 5.4039V5.18515C4.89494 5.06912 4.94103 4.95784 5.02308 4.87579C5.10513 4.79374 5.21641 4.74765 5.33244 4.74765C5.44847 4.74765 5.55975 4.79374 5.6418 4.87579C5.72385 4.95784 5.76994 5.06912 5.76994 5.18515V5.4039C5.76994 5.92605 5.56252 6.4268 5.19331 6.79602C4.8241 7.16523 4.32334 7.37265 3.80119 7.37265Z" fill="#0A0A0A"/>
</svg>
