<svg width="25" height="24" viewBox="0 0 25 24" fill="none" xmlns="http://www.w3.org/2000/svg">
<path d="M13.7455 3.51001L15.5055 7.03001C15.7455 7.52002 16.3855 7.99001 16.9255 8.08001L20.1155 8.61001C22.1555 8.95001 22.6355 10.43 21.1655 11.89L18.6855 14.37C18.2655 14.79 18.0355 15.6 18.1655 16.18L18.8755 19.25C19.4355 21.68 18.1455 22.62 15.9955 21.35L13.0055 19.58C12.4655 19.26 11.5755 19.26 11.0255 19.58L8.03553 21.35C5.89553 22.62 4.59553 21.67 5.15553 19.25L5.86553 16.18C5.99553 15.6 5.76553 14.79 5.34553 14.37L2.86553 11.89C1.40553 10.43 1.87553 8.95001 3.91553 8.61001L7.10553 8.08001C7.63553 7.99001 8.27553 7.52002 8.51553 7.03001L10.2755 3.51001C11.2355 1.60001 12.7955 1.60001 13.7455 3.51001Z" fill="#FFD86F"/>
</svg>
