<svg width="14" height="15" viewBox="0 0 14 15" fill="none" xmlns="http://www.w3.org/2000/svg">
<path opacity="0.2" d="M12.25 3.81006V8.62256H1.75V3.81006C1.75 3.57799 1.84219 3.35543 2.00628 3.19134C2.17038 3.02725 2.39294 2.93506 2.625 2.93506H11.375C11.6071 2.93506 11.8296 3.02725 11.9937 3.19134C12.1578 3.35543 12.25 3.57799 12.25 3.81006Z" fill="#0A0A0A"/>
<path d="M11.375 2.49756H2.625C2.2769 2.49756 1.94306 2.63584 1.69692 2.88198C1.45078 3.12812 1.3125 3.46196 1.3125 3.81006V9.93506C1.3125 10.2832 1.45078 10.617 1.69692 10.8631C1.94306 11.1093 2.2769 11.2476 2.625 11.2476H6.5625V12.1226H5.25C5.13397 12.1226 5.02269 12.1687 4.94064 12.2507C4.85859 12.3327 4.8125 12.444 4.8125 12.5601C4.8125 12.6761 4.85859 12.7874 4.94064 12.8694C5.02269 12.9515 5.13397 12.9976 5.25 12.9976H8.75C8.86603 12.9976 8.97731 12.9515 9.05936 12.8694C9.14141 12.7874 9.1875 12.6761 9.1875 12.5601C9.1875 12.444 9.14141 12.3327 9.05936 12.2507C8.97731 12.1687 8.86603 12.1226 8.75 12.1226H7.4375V11.2476H11.375C11.7231 11.2476 12.0569 11.1093 12.3031 10.8631C12.5492 10.617 12.6875 10.2832 12.6875 9.93506V3.81006C12.6875 3.46196 12.5492 3.12812 12.3031 2.88198C12.0569 2.63584 11.7231 2.49756 11.375 2.49756ZM2.625 3.37256H11.375C11.491 3.37256 11.6023 3.41865 11.6844 3.5007C11.7664 3.58275 11.8125 3.69403 11.8125 3.81006V8.18506H2.1875V3.81006C2.1875 3.69403 2.23359 3.58275 2.31564 3.5007C2.39769 3.41865 2.50897 3.37256 2.625 3.37256ZM11.375 10.3726H2.625C2.50897 10.3726 2.39769 10.3265 2.31564 10.2444C2.23359 10.1624 2.1875 10.0511 2.1875 9.93506V9.06006H11.8125V9.93506C11.8125 10.0511 11.7664 10.1624 11.6844 10.2444C11.6023 10.3265 11.491 10.3726 11.375 10.3726Z" fill="#0A0A0A"/>
</svg>
