<svg width="14" height="15" viewBox="0 0 14 15" fill="none" xmlns="http://www.w3.org/2000/svg">
<path opacity="0.2" d="M10.5 3.37256V11.2476H3.5V3.37256H10.5Z" fill="#0A0A0A"/>
<path d="M9.625 1.18506H4.375C4.0269 1.18506 3.69306 1.32334 3.44692 1.56948C3.20078 1.81562 3.0625 2.14946 3.0625 2.49756V12.1226C3.0625 12.4707 3.20078 12.8045 3.44692 13.0506C3.69306 13.2968 4.0269 13.4351 4.375 13.4351H9.625C9.9731 13.4351 10.3069 13.2968 10.5531 13.0506C10.7992 12.8045 10.9375 12.4707 10.9375 12.1226V2.49756C10.9375 2.14946 10.7992 1.81562 10.5531 1.56948C10.3069 1.32334 9.9731 1.18506 9.625 1.18506ZM3.9375 3.81006H10.0625V10.8101H3.9375V3.81006ZM4.375 2.06006H9.625C9.74103 2.06006 9.85231 2.10615 9.93436 2.1882C10.0164 2.27025 10.0625 2.38153 10.0625 2.49756V2.93506H3.9375V2.49756C3.9375 2.38153 3.98359 2.27025 4.06564 2.1882C4.14769 2.10615 4.25897 2.06006 4.375 2.06006ZM9.625 12.5601H4.375C4.25897 12.5601 4.14769 12.514 4.06564 12.4319C3.98359 12.3499 3.9375 12.2386 3.9375 12.1226V11.6851H10.0625V12.1226C10.0625 12.2386 10.0164 12.3499 9.93436 12.4319C9.85231 12.514 9.74103 12.5601 9.625 12.5601Z" fill="#0A0A0A"/>
</svg>
