<svg width="15" height="15" viewBox="0 0 15 15" fill="none" xmlns="http://www.w3.org/2000/svg">
<path opacity="0.2" d="M11.1299 5.0625V11.1875C11.1299 11.3035 11.0838 11.4148 11.0017 11.4969C10.9197 11.5789 10.8084 11.625 10.6924 11.625H2.81738C2.70135 11.625 2.59007 11.5789 2.50802 11.4969C2.42598 11.4148 2.37988 11.3035 2.37988 11.1875V5.0625C2.37988 4.94647 2.42598 4.83519 2.50802 4.75314C2.59007 4.67109 2.70135 4.625 2.81738 4.625H10.6924C10.8084 4.625 10.9197 4.67109 11.0017 4.75314C11.0838 4.83519 11.1299 4.94647 11.1299 5.0625Z" fill="#0A0A0A"/>
<path d="M10.6924 4.1875H2.81738C2.58532 4.1875 2.36276 4.27969 2.19866 4.44378C2.03457 4.60788 1.94238 4.83044 1.94238 5.0625V11.1875C1.94238 11.4196 2.03457 11.6421 2.19866 11.8062C2.36276 11.9703 2.58532 12.0625 2.81738 12.0625H10.6924C10.9244 12.0625 11.147 11.9703 11.3111 11.8062C11.4752 11.6421 11.5674 11.4196 11.5674 11.1875V5.0625C11.5674 4.83044 11.4752 4.60788 11.3111 4.44378C11.147 4.27969 10.9244 4.1875 10.6924 4.1875ZM10.6924 11.1875H2.81738V5.0625H10.6924V11.1875ZM13.3174 3.3125V9.875C13.3174 9.99103 13.2713 10.1023 13.1892 10.1844C13.1072 10.2664 12.9959 10.3125 12.8799 10.3125C12.7639 10.3125 12.6526 10.2664 12.5705 10.1844C12.4885 10.1023 12.4424 9.99103 12.4424 9.875V3.3125H4.12988C4.01385 3.3125 3.90257 3.26641 3.82052 3.18436C3.73848 3.10231 3.69238 2.99103 3.69238 2.875C3.69238 2.75897 3.73848 2.64769 3.82052 2.56564C3.90257 2.48359 4.01385 2.4375 4.12988 2.4375H12.4424C12.6744 2.4375 12.897 2.52969 13.0611 2.69378C13.2252 2.85788 13.3174 3.08044 13.3174 3.3125Z" fill="#0A0A0A"/>
</svg>
