<svg width="15" height="15" viewBox="0 0 15 15" fill="none" xmlns="http://www.w3.org/2000/svg">
<path opacity="0.2" d="M12.95 6.05983C12.9498 6.66845 12.7909 7.2665 12.4889 7.79493C12.187 8.32337 11.7524 8.76394 11.2282 9.07315C10.704 9.38236 10.1082 9.54953 9.49963 9.55815C8.89107 9.56678 8.29077 9.41656 7.758 9.12233L4.69222 12.677C4.44565 12.9236 4.11123 13.0621 3.76253 13.0621C3.41383 13.0621 3.07941 12.9236 2.83284 12.677C2.58627 12.4304 2.44775 12.096 2.44775 11.7473C2.44775 11.3986 2.58627 11.0642 2.83284 10.8176L6.38753 7.75186C6.03779 7.11894 5.89268 6.39322 5.97214 5.67447C6.0516 4.95572 6.35174 4.27923 6.8313 3.73799C7.31086 3.19675 7.94629 2.81734 8.65024 2.6519C9.35419 2.48647 10.0921 2.54314 10.7625 2.81413L8.57503 5.18483L8.88456 6.6253L10.325 6.93483L12.6957 4.74733C12.8643 5.16435 12.9507 5.61003 12.95 6.05983Z" fill="#0A0A0A"/>
<path d="M13.1009 4.5833C13.0744 4.5177 13.0323 4.45953 12.9784 4.41375C12.9244 4.36798 12.8601 4.33598 12.7911 4.32049C12.722 4.30501 12.6503 4.3065 12.5819 4.32484C12.5136 4.34318 12.4507 4.37782 12.3987 4.4258L10.1948 6.45963L9.25254 6.25728L9.0502 5.31502L11.084 3.11111C11.132 3.0591 11.1666 2.99623 11.185 2.92789C11.2033 2.85955 11.2048 2.78778 11.1893 2.71873C11.1738 2.64969 11.1418 2.58543 11.0961 2.53147C11.0503 2.47751 10.9921 2.43546 10.9265 2.40892C10.3288 2.16711 9.68075 2.07581 9.03944 2.14304C8.39813 2.21027 7.78314 2.43398 7.24851 2.7945C6.71389 3.15502 6.27598 3.64132 5.97328 4.21068C5.67058 4.78005 5.51234 5.41503 5.51247 6.05986C5.51176 6.60437 5.62346 7.14317 5.84059 7.64252L2.54786 10.4895C2.53965 10.4961 2.532 10.5038 2.52434 10.5109C2.19611 10.8391 2.01172 11.2843 2.01172 11.7485C2.01172 11.9783 2.05699 12.2059 2.14494 12.4182C2.2329 12.6306 2.36182 12.8235 2.52434 12.986C2.68686 13.1486 2.8798 13.2775 3.09215 13.3654C3.30449 13.4534 3.53208 13.4987 3.76192 13.4987C4.2261 13.4987 4.67127 13.3143 4.9995 12.986C5.00661 12.9789 5.01426 12.9707 5.02082 12.9631L7.86731 9.66924C8.46692 9.93244 9.12271 10.042 9.77531 9.98785C10.4279 9.93374 11.0567 9.71773 11.6048 9.35937C12.1529 9.001 12.6029 8.51161 12.9142 7.93548C13.2255 7.35936 13.3881 6.7147 13.3875 6.05986C13.3883 5.55377 13.291 5.05233 13.1009 4.5833ZM9.44997 9.12236C8.93211 9.12165 8.42286 8.98996 7.96957 8.73955C7.88176 8.69103 7.77994 8.67418 7.68117 8.6918C7.5824 8.70942 7.49269 8.76045 7.42707 8.83635L4.37004 12.3768C4.20461 12.534 3.98433 12.6203 3.75617 12.6174C3.528 12.6145 3.31 12.5225 3.14865 12.3612C2.9873 12.1998 2.89536 11.9818 2.89244 11.7537C2.88952 11.5255 2.97584 11.3052 3.13301 11.1398L6.67075 8.0833C6.74677 8.01765 6.79788 7.92784 6.81551 7.82895C6.83314 7.73006 6.8162 7.62813 6.76754 7.54025C6.48865 7.03584 6.35777 6.46296 6.38994 5.88747C6.42212 5.31199 6.61604 4.75727 6.94941 4.28708C7.28279 3.8169 7.74208 3.45033 8.27449 3.22954C8.80691 3.00874 9.39082 2.94267 9.95911 3.03892L8.25286 4.88791C8.20538 4.93941 8.17097 5.00155 8.1525 5.06912C8.13404 5.13669 8.13207 5.2077 8.14676 5.27619L8.45629 6.71611C8.474 6.79847 8.5151 6.87396 8.57466 6.93352C8.63423 6.99309 8.70972 7.03419 8.79208 7.05189L10.2331 7.36142C10.3016 7.37611 10.3726 7.37414 10.4402 7.35568C10.5077 7.33722 10.5699 7.3028 10.6214 7.25533L12.4704 5.54908C12.5441 5.98822 12.5212 6.43816 12.4034 6.86758C12.2856 7.29701 12.0757 7.69562 11.7883 8.03569C11.5008 8.37577 11.1427 8.64914 10.7389 8.8368C10.3351 9.02447 9.89525 9.12191 9.44997 9.12236Z" fill="#0A0A0A"/>
</svg>
